<svg width="1114" height="1124" viewBox="0 0 1114 1124" fill="none" xmlns="http://www.w3.org/2000/svg">
<path d="M1113.18 670.323L1054.04 709.601C1054.04 709.601 1088.57 644.857 1086.41 573.206L1025.12 635.792C1025.12 635.792 1029.01 388.468 1080.37 193.802L1049.72 217.11L1084.26 78.1252L1029.01 145.028L1062.67 0C1062.67 0 811.033 151.071 665.573 392.352C634.928 388.036 601.26 385.446 564.14 385.015C561.982 385.015 559.824 385.015 558.098 385.015C555.94 385.015 554.213 385.015 552.055 385.015C513.64 385.446 479.109 388.036 448.032 392.784C302.572 151.502 50.4995 0 50.4995 0L84.168 145.028L28.918 78.1252L63.4485 217.11L32.8022 193.802C84.5979 388.036 88.0523 635.792 88.0523 635.792L26.7598 573.206C25.0333 644.857 59.1321 709.601 59.1321 709.601L0 670.323C25.0346 753.627 65.1746 786 65.1746 786L26.7598 804.56C321.132 1126.12 552.487 1123.97 552.487 1123.97H560.256C560.256 1123.97 791.609 1126.12 1085.98 804.56L1047.57 786C1048 786 1088.14 753.627 1113.18 670.323Z" fill="url(#paint0_linear_55_2376)"/>
<defs>
<linearGradient id="paint0_linear_55_2376" x1="19" y1="693" x2="1108.5" y2="686" gradientUnits="userSpaceOnUse">
<stop stop-color="#FE6D73"/>
<stop offset="0.0193549" stop-color="#FD6D74"/>
<stop offset="0.0387097" stop-color="#FB6C75"/>
<stop offset="0.0580646" stop-color="#FA6C77"/>
<stop offset="0.0774194" stop-color="#F86B78"/>
<stop offset="0.0967743" stop-color="#F76B79"/>
<stop offset="0.0967743" stop-color="#F76B79"/>
<stop offset="0.116129" stop-color="#F56A7A"/>
<stop offset="0.135484" stop-color="#F46A7B"/>
<stop offset="0.154839" stop-color="#F2697D"/>
<stop offset="0.174194" stop-color="#F1697E"/>
<stop offset="0.193549" stop-color="#EF687F"/>
<stop offset="0.193549" stop-color="#EF687F"/>
<stop offset="0.212903" stop-color="#EE6880"/>
<stop offset="0.232258" stop-color="#EC6781"/>
<stop offset="0.251613" stop-color="#EB6783"/>
<stop offset="0.270968" stop-color="#E96684"/>
<stop offset="0.290323" stop-color="#E86685"/>
<stop offset="0.290323" stop-color="#E86685"/>
<stop offset="0.309678" stop-color="#E66586"/>
<stop offset="0.329033" stop-color="#E56587"/>
<stop offset="0.348388" stop-color="#E36488"/>
<stop offset="0.367742" stop-color="#E26489"/>
<stop offset="0.387097" stop-color="#E0638A"/>
<stop offset="0.387097" stop-color="#E0638A"/>
<stop offset="0.406452" stop-color="#DE638B"/>
<stop offset="0.425807" stop-color="#DD628C"/>
<stop offset="0.445162" stop-color="#DB628E"/>
<stop offset="0.464517" stop-color="#DA618F"/>
<stop offset="0.483872" stop-color="#D86190"/>
<stop offset="0.483872" stop-color="#D86190"/>
<stop offset="0.483872" stop-color="#D86190"/>
<stop offset="0.483872" stop-color="#D86190"/>
<stop offset="0.483872" stop-color="#D86190"/>
<stop offset="0.483872" stop-color="#D86190"/>
<stop offset="0.483872" stop-color="#D86190"/>
<stop offset="0.483872" stop-color="#D86190"/>
<stop offset="0.504517" stop-color="#D66190"/>
<stop offset="0.525162" stop-color="#D46191"/>
<stop offset="0.545807" stop-color="#D26191"/>
<stop offset="0.566452" stop-color="#D06192"/>
<stop offset="0.587097" stop-color="#CE6192"/>
<stop offset="0.587097" stop-color="#CE6192"/>
<stop offset="0.607742" stop-color="#CC6193"/>
<stop offset="0.628388" stop-color="#CA6193"/>
<stop offset="0.649033" stop-color="#C86194"/>
<stop offset="0.669678" stop-color="#C66194"/>
<stop offset="0.690323" stop-color="#C46195"/>
<stop offset="0.690323" stop-color="#C46195"/>
<stop offset="0.710968" stop-color="#C26195"/>
<stop offset="0.731613" stop-color="#C06196"/>
<stop offset="0.752258" stop-color="#BD6196"/>
<stop offset="0.772904" stop-color="#BB6197"/>
<stop offset="0.793549" stop-color="#B96197"/>
<stop offset="0.793549" stop-color="#B96197"/>
<stop offset="0.814194" stop-color="#B76198"/>
<stop offset="0.834839" stop-color="#B56198"/>
<stop offset="0.855484" stop-color="#B36099"/>
<stop offset="0.876129" stop-color="#B16099"/>
<stop offset="0.896774" stop-color="#AF609A"/>
<stop offset="0.896774" stop-color="#AF609A"/>
<stop offset="0.917419" stop-color="#AD609A"/>
<stop offset="0.938065" stop-color="#AB609B"/>
<stop offset="0.95871" stop-color="#A8609B"/>
<stop offset="0.979355" stop-color="#A6609C"/>
<stop offset="1" stop-color="#A4609C"/>
</linearGradient>
</defs>
</svg>
