<svg width="1619" height="1124" viewBox="0 0 1619 1124" fill="none" xmlns="http://www.w3.org/2000/svg">
  <path d="M191.643 531.769C208.68 597.484 111.991 561.122 131.5 512.484C142.051 486.179 186.103 510.403 191.643 531.769Z" fill="url(#paint0_linear_7_2089)"/>
  <path d="M160.997 577.954C160.997 615.547 112.542 603.484 100.569 584.86C87.7238 564.878 91.3682 536.949 120.857 536.949C120.857 556.534 143.278 573.524 160.997 577.954Z" fill="url(#paint1_linear_7_2089)"/>
  <path d="M166.61 432.336C161.43 426.293 154.955 419.819 148.913 416.797L142.87 413.776L145.028 420.25C146.323 424.135 149.343 433.631 150.207 441.4C154.523 436.652 160.135 433.631 166.61 432.336Z" fill="url(#paint2_linear_7_2089)"/>
  <path d="M0 557.235L3.02015 563.278C6.04157 569.753 14.243 577.09 20.7174 582.27C21.1491 576.658 22.8769 571.479 26.3299 566.731C27.1932 565.868 27.6248 565.004 28.4881 564.141C18.9922 563.278 6.90609 559.393 6.47446 559.393L0 557.235Z" fill="url(#paint3_linear_7_2089)"/>
  <path d="M232.217 669.028L219.7 627.16L255.957 651.331L272.79 662.553C264.589 636.656 257.252 602.988 258.115 567.163L258.547 549.034C254.231 523.137 237.828 460.55 182.58 442.422C148.481 431.199 148.05 469.183 152.798 492.059C161.739 492.059 169.957 495.955 177.401 500.692C171.79 488.606 170.494 473.931 178.263 469.183C192.507 460.119 207.616 482.563 207.616 482.563C207.616 482.563 229.196 514.504 202.003 518.389C199.845 518.82 198.119 518.389 196.393 517.957C198.551 521.41 200.278 524.863 201.141 529.179C204.162 539.97 203.73 550.761 199.845 559.825C204.161 560.688 212.793 562.415 220.994 565.437C232.217 569.753 186.896 597.377 186.896 597.377C186.896 597.377 158.84 644.425 154.092 633.202C150.207 624.138 148.481 614.642 148.049 611.189C143.301 612.916 137.691 614.211 132.08 614.211C128.195 614.211 123.877 613.779 119.561 612.484C114.382 611.189 109.635 609.031 105.75 606.441C105.75 607.305 105.75 608.168 105.75 609.463C102.729 636.655 69.9236 616.369 69.9236 616.369C69.9236 616.369 47.048 601.693 55.6806 587.45C60.4286 579.68 75.5356 580.544 88.0529 586.155C84.4062 579.226 81.5785 572.333 81.5785 564.573C59.5653 560.257 22.4455 561.12 32.373 595.219C50.5015 658.237 151.504 670.754 151.504 670.754C151.504 670.754 202.003 725.14 260.273 787.726L267.18 784.273L285.739 775.209C271.064 757.081 248.188 722.982 232.217 669.028Z" fill="url(#paint4_linear_7_2089)"/>
  <path d="M1471.12 421.595C1470.69 422.027 1469.83 422.027 1469.39 422.458C1469.83 422.458 1470.26 422.027 1471.12 421.595Z" fill="url(#paint5_linear_7_2089)"/>
  <path d="M1613.13 566.191C1612.7 567.486 1611.4 568.781 1610.54 570.076C1611.4 568.781 1612.27 567.486 1613.13 566.191Z" fill="url(#paint6_linear_7_2089)"/>
  <path d="M1427.1 535.977C1410.06 601.692 1506.75 565.33 1487.24 516.692C1476.69 490.387 1432.64 514.611 1427.1 535.977Z" fill="url(#paint7_linear_7_2089)"/>
  <path d="M1457.74 582.162C1457.74 619.755 1506.2 607.692 1518.17 589.068C1531.02 569.086 1527.37 541.157 1497.88 541.157C1497.88 560.742 1475.46 577.732 1457.74 582.162Z" fill="url(#paint8_linear_7_2089)"/>
  <path d="M1452.13 436.544C1457.31 430.501 1463.78 424.027 1469.83 421.005L1475.87 417.984L1473.71 424.458C1472.42 428.343 1469.4 437.839 1468.53 445.608C1464.22 440.86 1458.6 437.839 1452.13 436.544Z" fill="url(#paint9_linear_7_2089)"/>
  <path d="M1618.74 561.443L1615.72 567.486C1612.7 573.961 1604.5 581.298 1598.02 586.478C1597.59 580.866 1595.86 575.687 1592.41 570.939C1591.55 570.076 1591.11 569.212 1590.25 568.349C1599.75 567.486 1611.83 563.601 1612.26 563.601L1618.74 561.443Z" fill="url(#paint10_linear_7_2089)"/>
  <path d="M1386.52 673.236L1399.04 631.368L1362.78 655.539L1345.95 666.761C1354.15 640.864 1361.49 607.196 1360.62 571.371L1360.19 553.242C1364.51 527.345 1380.91 464.758 1436.16 446.63C1470.26 435.407 1470.69 473.391 1465.94 496.267C1457 496.267 1448.78 500.163 1441.34 504.9C1446.95 492.814 1448.25 478.139 1440.48 473.391C1426.23 464.327 1411.12 486.771 1411.12 486.771C1411.12 486.771 1389.54 518.712 1416.74 522.597C1418.89 523.028 1420.62 522.597 1422.35 522.165C1420.19 525.618 1418.46 529.071 1417.6 533.387C1414.58 544.178 1415.01 554.969 1418.89 564.033C1414.58 564.896 1405.95 566.623 1397.74 569.645C1386.52 573.961 1431.84 601.585 1431.84 601.585C1431.84 601.585 1459.9 648.633 1464.65 637.41C1468.53 628.346 1470.26 618.85 1470.69 615.397C1475.44 617.124 1481.05 618.419 1486.66 618.419C1490.54 618.419 1494.86 617.987 1499.18 616.692C1504.36 615.397 1509.1 613.239 1512.99 610.649C1512.99 611.513 1512.99 612.376 1512.99 613.671C1516.01 640.863 1548.82 620.577 1548.82 620.577C1548.82 620.577 1571.69 605.901 1563.06 591.658C1558.31 583.888 1543.2 584.752 1530.69 590.363C1534.33 583.434 1537.16 576.541 1537.16 568.781C1559.17 564.465 1596.29 565.328 1586.37 599.427C1568.24 662.445 1467.24 674.962 1467.24 674.962C1467.24 674.962 1416.74 729.348 1358.47 791.934L1351.56 788.481L1333 779.417C1347.68 761.289 1370.55 727.19 1386.52 673.236Z" fill="url(#paint11_linear_7_2089)"/>
  <path fill-rule="evenodd" clip-rule="evenodd" d="M1308.98 709.601L1368.11 670.323C1343.08 753.627 1302.93 786 1302.5 786L1340.92 804.56C1046.55 1126.12 815.192 1123.97 815.192 1123.97H807.424C807.424 1123.97 576.068 1126.12 281.696 804.56L320.111 786C320.111 786 279.971 753.627 254.936 670.323L314.068 709.601C314.068 709.601 279.969 644.857 281.696 573.206L342.988 635.792C342.988 635.792 339.534 388.036 287.738 193.802L318.385 217.11L283.854 78.1252L339.104 145.028L305.436 0C305.436 0 557.508 151.502 702.968 392.784C734.045 388.036 768.576 385.446 806.991 385.015H813.034H819.076C856.197 385.446 889.864 388.036 920.51 392.352C1065.97 151.071 1317.61 0 1317.61 0L1283.94 145.028L1339.19 78.1252L1304.66 217.11L1335.31 193.802C1283.94 388.468 1280.06 635.792 1280.06 635.792L1341.35 573.206C1343.51 644.857 1308.98 709.601 1308.98 709.601ZM348.167 282.718C386.15 388.468 388.742 602.988 388.742 602.988C434.311 491.1 509.41 493.501 518.239 493.784C518.776 493.801 519.068 493.81 519.093 493.786C465.571 332.356 348.167 282.718 348.167 282.718ZM446.58 667.733C446.58 667.733 403.849 839.953 526.864 897.36C611.463 937.07 714.19 929.301 769.871 920.237C761.238 868.873 737.499 751.038 686.567 668.165C619.664 559.394 446.58 667.733 446.58 667.733ZM846.7 920.237C902.812 929.301 1005.54 937.07 1090.14 897.36C1213.16 839.953 1171.72 667.733 1171.72 667.733C1171.72 667.733 996.909 559.394 930.006 668.165C879.074 751.038 855.333 868.873 846.7 920.237ZM1102.66 494.217C1102.66 494.217 1184.24 484.29 1232.58 602.988C1232.58 602.988 1235.17 388.468 1273.58 283.15C1273.58 283.15 1156.18 332.356 1102.66 494.217ZM759.105 988.25L811.5 1070L863.895 988.25H759.105Z" fill="url(#paint12_linear_7_2089)"/>
  <path d="M1068 812C1068 853.421 1034.42 887 993 887C951.579 887 918 853.421 918 812C918 770.579 951.579 737 993 737C1034.42 737 1068 770.579 1068 812Z" fill="url(#paint13_linear_7_2089)"/>
  <path d="M693 812C693 853.421 659.421 887 618 887C576.579 887 543 853.421 543 812C543 770.579 576.579 737 618 737C659.421 737 693 770.579 693 812Z" fill="url(#paint14_linear_7_2089)"/>
  <defs>
    <linearGradient id="paint0_linear_7_2089" x1="129.765" y1="535.328" x2="193.465" y2="535.328" gradientUnits="userSpaceOnUse">
      <stop offset="0.00101273" stop-color="#7319FF"/>
      <stop offset="0.143" stop-color="#781BFF"/>
      <stop offset="0.3198" stop-color="#881FFF"/>
      <stop offset="0.5152" stop-color="#A127FF"/>
      <stop offset="0.7238" stop-color="#C431FF"/>
      <stop offset="0.9409" stop-color="#F13FFF"/>
      <stop offset="1" stop-color="#FF43FF"/>
    </linearGradient>
    <linearGradient id="paint1_linear_7_2089" x1="91.6645" y1="571.369" x2="160.66" y2="571.369" gradientUnits="userSpaceOnUse">
      <stop offset="0.00101273" stop-color="#7319FF"/>
      <stop offset="0.143" stop-color="#781BFF"/>
      <stop offset="0.3198" stop-color="#881FFF"/>
      <stop offset="0.5152" stop-color="#A127FF"/>
      <stop offset="0.7238" stop-color="#C431FF"/>
      <stop offset="0.9409" stop-color="#F13FFF"/>
      <stop offset="1" stop-color="#FF43FF"/>
    </linearGradient>
    <linearGradient id="paint2_linear_7_2089" x1="142.723" y1="427.821" x2="166.564" y2="427.821" gradientUnits="userSpaceOnUse">
      <stop offset="0.00101273" stop-color="#7319FF"/>
      <stop offset="0.143" stop-color="#781BFF"/>
      <stop offset="0.3198" stop-color="#881FFF"/>
      <stop offset="0.5152" stop-color="#A127FF"/>
      <stop offset="0.7238" stop-color="#C431FF"/>
      <stop offset="0.9409" stop-color="#F13FFF"/>
      <stop offset="1" stop-color="#FF43FF"/>
    </linearGradient>
    <linearGradient id="paint3_linear_7_2089" x1="0.0824427" y1="569.529" x2="28.4971" y2="569.529" gradientUnits="userSpaceOnUse">
      <stop offset="0.00101273" stop-color="#7319FF"/>
      <stop offset="0.143" stop-color="#781BFF"/>
      <stop offset="0.3198" stop-color="#881FFF"/>
      <stop offset="0.5152" stop-color="#A127FF"/>
      <stop offset="0.7238" stop-color="#C431FF"/>
      <stop offset="0.9409" stop-color="#F13FFF"/>
      <stop offset="1" stop-color="#FF43FF"/>
    </linearGradient>
    <linearGradient id="paint4_linear_7_2089" x1="30.681" y1="613.878" x2="286.02" y2="613.878" gradientUnits="userSpaceOnUse">
      <stop offset="0.00101273" stop-color="#7319FF"/>
      <stop offset="0.143" stop-color="#781BFF"/>
      <stop offset="0.3198" stop-color="#881FFF"/>
      <stop offset="0.5152" stop-color="#A127FF"/>
      <stop offset="0.7238" stop-color="#C431FF"/>
      <stop offset="0.9409" stop-color="#F13FFF"/>
      <stop offset="1" stop-color="#FF43FF"/>
    </linearGradient>
    <linearGradient id="paint5_linear_7_2089" x1="1471.01" y1="422.203" x2="1469.33" y2="422.203" gradientUnits="userSpaceOnUse">
      <stop offset="0.00101273" stop-color="#7319FF"/>
      <stop offset="0.143" stop-color="#781BFF"/>
      <stop offset="0.3198" stop-color="#881FFF"/>
      <stop offset="0.5152" stop-color="#A127FF"/>
      <stop offset="0.7238" stop-color="#C431FF"/>
      <stop offset="0.9409" stop-color="#F13FFF"/>
      <stop offset="1" stop-color="#FF43FF"/>
    </linearGradient>
    <linearGradient id="paint6_linear_7_2089" x1="1613" y1="568.163" x2="1610.45" y2="568.163" gradientUnits="userSpaceOnUse">
      <stop offset="0.00101273" stop-color="#7319FF"/>
      <stop offset="0.143" stop-color="#781BFF"/>
      <stop offset="0.3198" stop-color="#881FFF"/>
      <stop offset="0.5152" stop-color="#A127FF"/>
      <stop offset="0.7238" stop-color="#C431FF"/>
      <stop offset="0.9409" stop-color="#F13FFF"/>
      <stop offset="1" stop-color="#FF43FF"/>
    </linearGradient>
    <linearGradient id="paint7_linear_7_2089" x1="1488.97" y1="539.536" x2="1425.27" y2="539.536" gradientUnits="userSpaceOnUse">
      <stop offset="0.00101273" stop-color="#7319FF"/>
      <stop offset="0.143" stop-color="#781BFF"/>
      <stop offset="0.3198" stop-color="#881FFF"/>
      <stop offset="0.5152" stop-color="#A127FF"/>
      <stop offset="0.7238" stop-color="#C431FF"/>
      <stop offset="0.9409" stop-color="#F13FFF"/>
      <stop offset="1" stop-color="#FF43FF"/>
    </linearGradient>
    <linearGradient id="paint8_linear_7_2089" x1="1527.07" y1="575.577" x2="1458.08" y2="575.577" gradientUnits="userSpaceOnUse">
      <stop offset="0.00101273" stop-color="#7319FF"/>
      <stop offset="0.143" stop-color="#781BFF"/>
      <stop offset="0.3198" stop-color="#881FFF"/>
      <stop offset="0.5152" stop-color="#A127FF"/>
      <stop offset="0.7238" stop-color="#C431FF"/>
      <stop offset="0.9409" stop-color="#F13FFF"/>
      <stop offset="1" stop-color="#FF43FF"/>
    </linearGradient>
    <linearGradient id="paint9_linear_7_2089" x1="1476.02" y1="432.029" x2="1452.17" y2="432.029" gradientUnits="userSpaceOnUse">
      <stop offset="0.00101273" stop-color="#7319FF"/>
      <stop offset="0.143" stop-color="#781BFF"/>
      <stop offset="0.3198" stop-color="#881FFF"/>
      <stop offset="0.5152" stop-color="#A127FF"/>
      <stop offset="0.7238" stop-color="#C431FF"/>
      <stop offset="0.9409" stop-color="#F13FFF"/>
      <stop offset="1" stop-color="#FF43FF"/>
    </linearGradient>
    <linearGradient id="paint10_linear_7_2089" x1="1618.66" y1="573.737" x2="1590.24" y2="573.737" gradientUnits="userSpaceOnUse">
      <stop offset="0.00101273" stop-color="#7319FF"/>
      <stop offset="0.143" stop-color="#781BFF"/>
      <stop offset="0.3198" stop-color="#881FFF"/>
      <stop offset="0.5152" stop-color="#A127FF"/>
      <stop offset="0.7238" stop-color="#C431FF"/>
      <stop offset="0.9409" stop-color="#F13FFF"/>
      <stop offset="1" stop-color="#FF43FF"/>
    </linearGradient>
    <linearGradient id="paint11_linear_7_2089" x1="1588.06" y1="618.086" x2="1332.72" y2="618.086" gradientUnits="userSpaceOnUse">
      <stop offset="0.00101273" stop-color="#7319FF"/>
      <stop offset="0.143" stop-color="#781BFF"/>
      <stop offset="0.3198" stop-color="#881FFF"/>
      <stop offset="0.5152" stop-color="#A127FF"/>
      <stop offset="0.7238" stop-color="#C431FF"/>
      <stop offset="0.9409" stop-color="#F13FFF"/>
      <stop offset="1" stop-color="#FF43FF"/>
    </linearGradient>
    <linearGradient id="paint12_linear_7_2089" x1="254.899" y1="561.98" x2="1367.98" y2="561.98" gradientUnits="userSpaceOnUse">
      <stop offset="0.00101273" stop-color="#7319FF"/>
      <stop offset="0.7631" stop-color="#FF43FF"/>
    </linearGradient>
    <linearGradient id="paint13_linear_7_2089" x1="917.995" y1="812" x2="1067.98" y2="812" gradientUnits="userSpaceOnUse">
      <stop offset="0.00101273" stop-color="#7319FF"/>
      <stop offset="0.822917" stop-color="#FF41FF" stop-opacity="0.76"/>
    </linearGradient>
    <linearGradient id="paint14_linear_7_2089" x1="542.995" y1="812" x2="692.982" y2="812" gradientUnits="userSpaceOnUse">
      <stop offset="0.00101273" stop-color="#7319FF"/>
      <stop offset="0.822917" stop-color="#FF41FF" stop-opacity="0.76"/>
    </linearGradient>
  </defs>
</svg>
