<svg width="1114" height="1124" viewBox="0 0 1114 1124" fill="none" xmlns="http://www.w3.org/2000/svg">
<path fill-rule="evenodd" clip-rule="evenodd" d="M1054.04 709.601L1113.18 670.323C1088.14 753.627 1048 786 1047.57 786L1085.98 804.56C791.609 1126.12 560.256 1123.97 560.256 1123.97H552.487C552.487 1123.97 321.132 1126.12 26.7598 804.56L65.1746 786C65.1746 786 25.0346 753.627 0 670.323L59.1321 709.601C59.1321 709.601 25.0333 644.857 26.7598 573.206L88.0523 635.792C88.0523 635.792 84.5979 388.036 32.8022 193.802L63.4485 217.11L28.918 78.1252L84.168 145.028L50.4995 0C50.4995 0 302.572 151.502 448.032 392.784C479.109 388.036 513.64 385.446 552.055 385.015H558.098H564.14C601.26 385.446 634.928 388.036 665.573 392.352C811.033 151.071 1062.67 0 1062.67 0L1029.01 145.028L1084.26 78.1252L1049.72 217.11L1080.37 193.802C1029.01 388.468 1025.12 635.792 1025.12 635.792L1086.41 573.206C1088.57 644.857 1054.04 709.601 1054.04 709.601ZM123.23 282.718C161.214 388.468 163.81 602.988 163.81 602.988C209.367 491.13 257.792 493.5 263.583 493.784C263.937 493.801 264.132 493.81 264.157 493.786C210.635 332.356 123.23 282.718 123.23 282.718ZM191.644 667.733C191.644 667.733 148.913 839.953 271.927 897.36C356.527 937.07 459.254 929.301 514.935 920.237C506.302 868.873 482.563 751.038 431.631 668.165C364.728 559.394 191.644 667.733 191.644 667.733ZM591.764 920.237C647.876 929.301 750.606 937.07 835.206 897.36C958.22 839.953 916.783 667.733 916.783 667.733C916.783 667.733 741.973 559.394 675.07 668.165C624.138 751.038 600.397 868.873 591.764 920.237ZM847.722 494.217C847.722 494.217 899.297 484.29 947.64 602.988C947.64 602.988 950.235 388.468 988.65 283.15C988.65 283.15 901.245 332.356 847.722 494.217ZM504.169 988.25L556.564 1070L608.958 988.25H504.169Z" fill="url(#paint0_linear_32_2225)"/>
<path d="M456.064 809.5C456.064 857.825 416.889 897 368.564 897C320.239 897 281.064 857.825 281.064 809.5C281.064 761.175 320.239 722 368.564 722C416.889 722 456.064 761.175 456.064 809.5Z" fill="url(#paint1_linear_32_2225)"/>
<path d="M831 809.5C831 857.825 791.825 897 743.5 897C695.175 897 656 857.825 656 809.5C656 761.175 695.175 722 743.5 722C791.825 722 831 761.175 831 809.5Z" fill="url(#paint2_linear_32_2225)"/>
<defs>
<linearGradient id="paint0_linear_32_2225" x1="19" y1="693" x2="1108.5" y2="686" gradientUnits="userSpaceOnUse">
<stop stop-color="#FE6D73"/>
<stop offset="0.483872" stop-color="#D86190"/>
<stop offset="1" stop-color="#A4609C"/>
</linearGradient>
<linearGradient id="paint1_linear_32_2225" x1="456" y1="810" x2="281" y2="810" gradientUnits="userSpaceOnUse">
<stop stop-color="#FE6D73"/>
<stop offset="0.464412" stop-color="#D86190"/>
<stop offset="1" stop-color="#A4609C"/>
</linearGradient>
<linearGradient id="paint2_linear_32_2225" x1="830.936" y1="810" x2="655.936" y2="810" gradientUnits="userSpaceOnUse">
<stop stop-color="#FE6D73"/>
<stop offset="0.464412" stop-color="#D86190"/>
<stop offset="1" stop-color="#A4609C"/>
</linearGradient>
</defs>
</svg>
