<svg width="1114" height="1124" viewBox="0 0 1114 1124" fill="none" xmlns="http://www.w3.org/2000/svg">
<mask id="mask0_19_2222" style="mask-type:alpha" maskUnits="userSpaceOnUse" x="0" y="0" width="1114" height="1124">
<path d="M1113.18 670.323L1054.04 709.601C1054.04 709.601 1088.57 644.857 1086.41 573.206L1025.12 635.792C1025.12 635.792 1029.01 388.468 1080.37 193.802L1049.72 217.11L1084.26 78.1252L1029.01 145.028L1062.67 0C1062.67 0 811.033 151.071 665.573 392.352C634.928 388.036 601.26 385.446 564.14 385.015C561.982 385.015 559.824 385.015 558.098 385.015C555.94 385.015 554.213 385.015 552.055 385.015C513.64 385.446 479.109 388.036 448.032 392.784C302.572 151.502 50.4995 0 50.4995 0L84.168 145.028L28.918 78.1252L63.4485 217.11L32.8022 193.802C84.5979 388.036 88.0523 635.792 88.0523 635.792L26.7598 573.206C25.0333 644.857 59.1321 709.601 59.1321 709.601L0 670.323C25.0346 753.627 65.1746 786 65.1746 786L26.7598 804.56C321.132 1126.12 552.487 1123.97 552.487 1123.97H560.256C560.256 1123.97 791.609 1126.12 1085.98 804.56L1047.57 786C1048 786 1088.14 753.627 1113.18 670.323Z" fill="url(#paint0_linear_19_2222)"/>
</mask>
<g mask="url(#mask0_19_2222)">
<path d="M46.9308 1312H1067.41C1151.15 1312 1193.01 1312 1225.1 1295.65C1253.32 1281.27 1276.27 1258.32 1290.65 1230.1C1307 1198.01 1307 1156.12 1307 1072.32V51.6858C1307 -32.1126 1307 -74.0118 1290.65 -106.099C1276.27 -134.323 1253.32 -157.27 1225.1 -171.651C1193.01 -188 1151.01 -188 1067.01 -188L46.8833 -188C-37.0467 -188 -79.0117 -188 -111.098 -171.651C-139.323 -157.27 -162.27 -134.323 -176.651 -106.099C-193 -74.0118 -193 -32.0627 -193 51.8355L-193 1072.09C-193 1156.04 -193 1198.01 -176.651 1230.1C-162.27 1258.32 -139.323 1281.27 -111.099 1295.65C-79.0118 1312 -37.0309 1312 46.9308 1312Z" fill="url(#paint1_radial_19_2222)"/>
<path fill-rule="evenodd" clip-rule="evenodd" d="M1054.04 709.601L1113.18 670.323C1088.14 753.627 1048 786 1047.57 786L1085.98 804.56C791.609 1126.12 560.256 1123.97 560.256 1123.97H552.487C552.487 1123.97 321.132 1126.12 26.7598 804.56L65.1746 786C65.1746 786 25.0346 753.627 0 670.323L59.1321 709.601C59.1321 709.601 25.0333 644.857 26.7598 573.206L88.0523 635.792C88.0523 635.792 84.5979 388.036 32.8022 193.802L63.4485 217.11L28.918 78.1252L84.168 145.028L50.4995 0C50.4995 0 302.572 151.502 448.032 392.784C479.109 388.036 513.64 385.446 552.055 385.015H558.098H564.14C601.26 385.446 634.928 388.036 665.573 392.352C811.033 151.071 1062.67 0 1062.67 0L1029.01 145.028L1084.26 78.1252L1049.72 217.11L1080.37 193.802C1029.01 388.468 1025.12 635.792 1025.12 635.792L1086.41 573.206C1088.57 644.857 1054.04 709.601 1054.04 709.601ZM93.2306 282.718C131.214 388.468 133.806 602.988 133.806 602.988C179.375 491.1 254.474 493.501 263.303 493.784C263.84 493.801 264.132 493.81 264.157 493.786C210.635 332.356 93.2306 282.718 93.2306 282.718ZM191.644 667.733C191.644 667.733 148.913 839.953 271.927 897.36C356.527 937.07 459.254 929.301 514.935 920.237C506.302 868.873 482.563 751.038 431.631 668.165C364.728 559.394 191.644 667.733 191.644 667.733ZM591.764 920.237C647.876 929.301 750.606 937.07 835.206 897.36C958.22 839.953 916.783 667.733 916.783 667.733C916.783 667.733 741.973 559.394 675.07 668.165C624.138 751.038 600.397 868.873 591.764 920.237ZM847.722 494.217C847.722 494.217 929.301 484.29 977.644 602.988C977.644 602.988 980.233 388.468 1018.65 283.15C1018.65 283.15 901.245 332.356 847.722 494.217ZM504.169 988.25L556.564 1070L608.958 988.25H504.169Z" fill="url(#paint2_linear_19_2222)"/>
<path d="M832.064 809.5C832.064 857.825 792.889 897 744.564 897C696.239 897 657.064 857.825 657.064 809.5C657.064 761.175 696.239 722 744.564 722C792.889 722 832.064 761.175 832.064 809.5Z" fill="url(#paint3_linear_19_2222)"/>
<path d="M457.064 809.5C457.064 857.825 417.889 897 369.564 897C321.239 897 282.064 857.825 282.064 809.5C282.064 761.175 321.239 722 369.564 722C417.889 722 457.064 761.175 457.064 809.5Z" fill="url(#paint4_linear_19_2222)"/>
</g>
<defs>
<linearGradient id="paint0_linear_19_2222" x1="-0.0371202" y1="561.98" x2="1113.04" y2="561.98" gradientUnits="userSpaceOnUse">
<stop offset="0.00101273" stop-color="#7319FF"/>
<stop offset="0.7631" stop-color="#FF43FF"/>
</linearGradient>
<radialGradient id="paint1_radial_19_2222" cx="0" cy="0" r="1" gradientUnits="userSpaceOnUse" gradientTransform="translate(558.93 574.027) scale(748.189 762.155)">
<stop stop-color="#0F0A42"/>
<stop offset="1" stop-color="#0C0724"/>
</radialGradient>
<linearGradient id="paint2_linear_19_2222" x1="-0.0371202" y1="561.98" x2="1113.04" y2="561.98" gradientUnits="userSpaceOnUse">
<stop offset="0.00101273" stop-color="#7319FF"/>
<stop offset="0.7631" stop-color="#FF43FF"/>
</linearGradient>
<linearGradient id="paint3_linear_19_2222" x1="657.058" y1="809.499" x2="832.043" y2="809.499" gradientUnits="userSpaceOnUse">
<stop offset="0.00101273" stop-color="#7319FF"/>
<stop offset="0.822917" stop-color="#FF41FF" stop-opacity="0.76"/>
</linearGradient>
<linearGradient id="paint4_linear_19_2222" x1="282.058" y1="809.499" x2="457.043" y2="809.499" gradientUnits="userSpaceOnUse">
<stop offset="0.00101273" stop-color="#7319FF"/>
<stop offset="0.822917" stop-color="#FF41FF" stop-opacity="0.76"/>
</linearGradient>
</defs>
</svg>
