<svg width="1200" height="1200" viewBox="0 0 1200 1200" fill="none" xmlns="http://www.w3.org/2000/svg">
<path d="M79.916 1200H1120.01C1148 1200 1162 1200 1172.7 1194.55C1182.11 1189.76 1189.76 1182.11 1194.55 1172.7C1200 1162 1200 1148.05 1200 1120.14V79.8594C1200 51.9505 1200 37.9961 1194.55 27.3005C1189.76 17.8924 1182.11 10.2433 1172.7 5.44968C1162 3.63911e-06 1148.01 4.73559e-06 1120.01 6.92854e-06L79.9605 2.97659e-05C51.9843 3.02726e-05 37.9962 3.05259e-05 27.3006 5.4497C17.8925 10.2434 10.2434 17.8924 5.44977 27.3005C9.08449e-05 37.9961 8.96765e-05 51.9367 8.73395e-05 79.8179L9.54418e-06 1120.23C6.64513e-06 1148.08 5.19561e-06 1162 5.44968 1172.7C10.2433 1182.11 17.8924 1189.76 27.3005 1194.55C37.9961 1200 51.9694 1200 79.916 1200Z" fill="url(#paint0_radial_32_2264)"/>
<path fill-rule="evenodd" clip-rule="evenodd" d="M1097.04 747.601L1156.18 708.323C1131.14 791.627 1091 824 1090.57 824L1128.98 842.56C834.609 1164.12 603.256 1161.97 603.256 1161.97H595.487C595.487 1161.97 364.132 1164.12 69.7598 842.56L108.175 824C108.175 824 68.0346 791.627 43 708.323L102.132 747.601C102.132 747.601 68.0333 682.857 69.7598 611.206L131.052 673.792C131.052 673.792 127.598 426.036 75.8022 231.802L106.448 255.11L71.918 116.125L127.168 183.028L93.4995 38C93.4995 38 345.572 189.502 491.032 430.784C522.109 426.036 556.64 423.446 595.055 423.015H601.098H607.14C644.26 423.446 677.928 426.036 708.573 430.352C854.033 189.071 1105.67 38 1105.67 38L1072.01 183.028L1127.26 116.125L1092.72 255.11L1123.37 231.802C1072.01 426.468 1068.12 673.792 1068.12 673.792L1129.41 611.206C1131.57 682.857 1097.04 747.601 1097.04 747.601ZM136.231 320.718C174.214 426.468 176.806 640.988 176.806 640.988C222.375 529.1 297.474 531.501 306.303 531.784C306.84 531.801 307.132 531.81 307.157 531.786C253.635 370.356 136.231 320.718 136.231 320.718ZM234.644 705.733C234.644 705.733 191.913 877.953 314.927 935.36C399.527 975.07 502.254 967.301 557.935 958.237C549.302 906.873 525.563 789.038 474.631 706.165C407.728 597.394 234.644 705.733 234.644 705.733ZM634.764 958.237C690.876 967.301 793.606 975.07 878.206 935.36C1001.22 877.953 959.783 705.733 959.783 705.733C959.783 705.733 784.973 597.394 718.07 706.165C667.138 789.038 643.397 906.873 634.764 958.237ZM890.722 532.217C890.722 532.217 972.301 522.29 1020.64 640.988C1020.64 640.988 1023.23 426.468 1061.65 321.15C1061.65 321.15 944.245 370.356 890.722 532.217ZM547.169 1026.25L599.564 1108L651.958 1026.25H547.169Z" fill="url(#paint1_linear_32_2264)"/>
<path d="M875.064 847.5C875.064 895.825 835.889 935 787.564 935C739.239 935 700.064 895.825 700.064 847.5C700.064 799.175 739.239 760 787.564 760C835.889 760 875.064 799.175 875.064 847.5Z" fill="url(#paint2_linear_32_2264)"/>
<path d="M500.064 847.5C500.064 895.825 460.889 935 412.564 935C364.239 935 325.064 895.825 325.064 847.5C325.064 799.175 364.239 760 412.564 760C460.889 760 500.064 799.175 500.064 847.5Z" fill="url(#paint3_linear_32_2264)"/>
<defs>
<radialGradient id="paint0_radial_32_2264" cx="0" cy="0" r="1" gradientUnits="userSpaceOnUse" gradientTransform="translate(601.544 609.622) scale(598.551 609.724)">
<stop stop-color="#0F0A42"/>
<stop offset="1" stop-color="#0C0724"/>
</radialGradient>
<linearGradient id="paint1_linear_32_2264" x1="42.9629" y1="599.98" x2="1156.04" y2="599.98" gradientUnits="userSpaceOnUse">
<stop offset="0.00101273" stop-color="#7319FF"/>
<stop offset="0.7631" stop-color="#FF43FF"/>
</linearGradient>
<linearGradient id="paint2_linear_32_2264" x1="700.058" y1="847.499" x2="875.043" y2="847.499" gradientUnits="userSpaceOnUse">
<stop offset="0.00101273" stop-color="#7319FF"/>
<stop offset="0.822917" stop-color="#FF41FF" stop-opacity="0.76"/>
</linearGradient>
<linearGradient id="paint3_linear_32_2264" x1="325.058" y1="847.499" x2="500.043" y2="847.499" gradientUnits="userSpaceOnUse">
<stop offset="0.00101273" stop-color="#7319FF"/>
<stop offset="0.822917" stop-color="#FF41FF" stop-opacity="0.76"/>
</linearGradient>
</defs>
</svg>
