<svg width="1621" height="1124" viewBox="0 0 1621 1124" fill="none" xmlns="http://www.w3.org/2000/svg">
<path d="M191.707 531.769C208.744 597.484 112.055 561.122 131.564 512.484C142.115 486.179 186.167 510.403 191.707 531.769Z" fill="url(#paint0_linear_32_2225)"/>
<path d="M161.061 577.954C161.061 615.547 112.606 603.484 100.633 584.86C87.7876 564.878 91.432 536.949 120.92 536.949C120.92 556.534 143.342 573.524 161.061 577.954Z" fill="url(#paint1_linear_32_2225)"/>
<path d="M166.674 432.336C161.494 426.293 155.019 419.819 148.976 416.797L142.934 413.776L145.092 420.25C146.387 424.135 149.407 433.631 150.271 441.4C154.587 436.652 160.199 433.631 166.674 432.336Z" fill="url(#paint2_linear_32_2225)"/>
<path d="M0.0639648 557.235L3.08412 563.278C6.10553 569.753 14.3069 577.09 20.7814 582.27C21.213 576.658 22.9408 571.479 26.3939 566.731C27.2571 565.868 27.6888 565.004 28.552 564.141C19.0561 563.278 6.97006 559.393 6.53843 559.393L0.0639648 557.235Z" fill="url(#paint3_linear_32_2225)"/>
<path d="M232.281 669.028L219.764 627.16L256.021 651.331L272.854 662.553C264.653 636.656 257.316 602.988 258.179 567.163L258.611 549.034C254.295 523.137 237.892 460.55 182.644 442.422C148.545 431.199 148.114 469.183 152.862 492.059C161.803 492.059 170.021 495.955 177.465 500.692C171.854 488.606 170.558 473.931 178.327 469.183C192.571 460.119 207.679 482.563 207.679 482.563C207.679 482.563 229.26 514.504 202.067 518.389C199.909 518.82 198.183 518.389 196.457 517.957C198.615 521.41 200.342 524.863 201.205 529.179C204.226 539.97 203.794 550.761 199.909 559.825C204.225 560.688 212.857 562.415 221.058 565.437C232.281 569.753 186.96 597.377 186.96 597.377C186.96 597.377 158.904 644.425 154.156 633.202C150.271 624.138 148.545 614.642 148.113 611.189C143.365 612.916 137.755 614.211 132.144 614.211C128.259 614.211 123.941 613.779 119.625 612.484C114.446 611.189 109.699 609.031 105.814 606.441C105.814 607.305 105.814 608.168 105.814 609.463C102.793 636.655 69.9876 616.369 69.9876 616.369C69.9876 616.369 47.112 601.693 55.7446 587.45C60.4925 579.68 75.5996 580.544 88.1169 586.155C84.4702 579.226 81.6424 572.333 81.6424 564.573C59.6293 560.257 22.5094 561.12 32.4369 595.219C50.5654 658.237 151.567 670.754 151.567 670.754C151.567 670.754 202.067 725.14 260.337 787.726L267.244 784.273L285.803 775.209C271.128 757.081 248.252 722.982 232.281 669.028Z" fill="url(#paint4_linear_32_2225)"/>
<path d="M1429.16 535.977C1412.12 601.692 1508.81 565.33 1489.3 516.692C1478.75 490.387 1434.7 514.611 1429.16 535.977Z" fill="url(#paint5_linear_32_2225)"/>
<path d="M1459.81 582.162C1459.81 619.755 1508.26 607.692 1520.23 589.068C1533.08 569.086 1529.43 541.157 1499.95 541.157C1499.95 560.742 1477.52 577.732 1459.81 582.162Z" fill="url(#paint6_linear_32_2225)"/>
<path d="M1454.19 436.544C1459.37 430.501 1465.85 424.027 1471.89 421.005L1477.93 417.984L1475.77 424.458C1474.48 428.343 1471.46 437.839 1470.6 445.608C1466.28 440.86 1460.67 437.839 1454.19 436.544Z" fill="url(#paint7_linear_32_2225)"/>
<path d="M1620.8 561.443L1617.78 567.486C1614.76 573.961 1606.56 581.298 1600.09 586.478C1599.65 580.866 1597.93 575.687 1594.47 570.939C1593.61 570.076 1593.18 569.212 1592.31 568.349C1601.81 567.486 1613.9 563.601 1614.33 563.601L1620.8 561.443Z" fill="url(#paint8_linear_32_2225)"/>
<path d="M1473.19 421.595C1472.75 422.027 1471.89 422.027 1471.46 422.458C1471.89 422.458 1472.32 422.027 1473.19 421.595Z" fill="url(#paint9_linear_32_2225)"/>
<path d="M1615.19 566.191C1614.76 567.486 1613.47 568.781 1612.6 570.076C1613.47 568.781 1614.33 567.486 1615.19 566.191Z" fill="url(#paint10_linear_32_2225)"/>
<path d="M1388.59 673.236L1401.1 631.368L1364.85 655.539L1348.01 666.761C1356.21 640.864 1363.55 607.196 1362.69 571.371L1362.26 553.242C1366.57 527.345 1382.97 464.758 1438.22 446.63C1472.32 435.407 1472.75 473.391 1468.01 496.267C1459.06 496.267 1450.85 500.163 1443.4 504.9C1449.01 492.814 1450.31 478.139 1442.54 473.391C1428.3 464.327 1413.19 486.771 1413.19 486.771C1413.19 486.771 1391.61 518.712 1418.8 522.597C1420.96 523.028 1422.68 522.597 1424.41 522.165C1422.25 525.618 1420.53 529.071 1419.66 533.387C1416.64 544.178 1417.07 554.969 1420.96 564.033C1416.64 564.896 1408.01 566.623 1399.81 569.645C1388.59 573.961 1433.91 601.585 1433.91 601.585C1433.91 601.585 1461.96 648.633 1466.71 637.41C1470.6 628.346 1472.32 618.85 1472.75 615.397C1477.5 617.124 1483.11 618.419 1488.72 618.419C1492.61 618.419 1496.93 617.987 1501.24 616.692C1506.42 615.397 1511.17 613.239 1515.05 610.649C1515.05 611.513 1515.05 612.376 1515.05 613.671C1518.07 640.863 1550.88 620.577 1550.88 620.577C1550.88 620.577 1573.75 605.901 1565.12 591.658C1560.37 583.888 1545.27 584.752 1532.75 590.363C1536.4 583.434 1539.22 576.541 1539.22 568.781C1561.24 564.465 1598.36 565.328 1588.43 599.427C1570.3 662.445 1469.3 674.962 1469.3 674.962C1469.3 674.962 1418.8 729.348 1360.53 791.934L1353.62 788.481L1335.06 779.417C1349.74 761.289 1372.62 727.19 1388.59 673.236Z" fill="url(#paint11_linear_32_2225)"/>
<path fill-rule="evenodd" clip-rule="evenodd" d="M1310.04 709.601L1369.18 670.323C1344.14 753.627 1304 786 1303.57 786L1341.98 804.56C1047.61 1126.12 816.256 1123.97 816.256 1123.97H808.487C808.487 1123.97 577.132 1126.12 282.76 804.56L321.175 786C321.175 786 281.035 753.627 256 670.323L315.132 709.601C315.132 709.601 281.033 644.857 282.76 573.206L344.052 635.792C344.052 635.792 340.598 388.036 288.802 193.802L319.448 217.11L284.918 78.1252L340.168 145.028L306.5 0C306.5 0 558.572 151.502 704.032 392.784C735.109 388.036 769.64 385.446 808.055 385.015H814.098H820.14C857.26 385.446 890.928 388.036 921.573 392.352C1067.03 151.071 1318.67 0 1318.67 0L1285.01 145.028L1340.26 78.1252L1305.72 217.11L1336.37 193.802C1285.01 388.468 1281.12 635.792 1281.12 635.792L1342.41 573.206C1344.57 644.857 1310.04 709.601 1310.04 709.601ZM379.23 282.718C417.214 388.468 419.81 602.988 419.81 602.988C465.367 491.13 513.792 493.5 519.583 493.784C519.937 493.801 520.132 493.81 520.157 493.786C466.635 332.356 379.23 282.718 379.23 282.718ZM447.644 667.733C447.644 667.733 404.913 839.953 527.927 897.36C612.527 937.07 715.254 929.301 770.935 920.237C762.302 868.873 738.563 751.038 687.631 668.165C620.728 559.394 447.644 667.733 447.644 667.733ZM847.764 920.237C903.876 929.301 1006.61 937.07 1091.21 897.36C1214.22 839.953 1172.78 667.733 1172.78 667.733C1172.78 667.733 997.973 559.394 931.07 668.165C880.138 751.038 856.397 868.873 847.764 920.237ZM1103.72 494.217C1103.72 494.217 1155.3 484.29 1203.64 602.988C1203.64 602.988 1206.23 388.468 1244.65 283.15C1244.65 283.15 1157.24 332.356 1103.72 494.217ZM760.169 988.25L812.564 1070L864.958 988.25H760.169Z" fill="url(#paint12_linear_32_2225)"/>
<path d="M712.064 809.5C712.064 857.825 672.889 897 624.564 897C576.239 897 537.064 857.825 537.064 809.5C537.064 761.175 576.239 722 624.564 722C672.889 722 712.064 761.175 712.064 809.5Z" fill="url(#paint13_linear_32_2225)"/>
<path d="M1087 809.5C1087 857.825 1047.82 897 999.5 897C951.175 897 912 857.825 912 809.5C912 761.175 951.175 722 999.5 722C1047.82 722 1087 761.175 1087 809.5Z" fill="url(#paint14_linear_32_2225)"/>
<defs>
<linearGradient id="paint0_linear_32_2225" x1="130.057" y1="541.942" x2="193.459" y2="541.541" gradientUnits="userSpaceOnUse">
<stop stop-color="#FE6D73"/>
<stop offset="0.483872" stop-color="#D86190"/>
<stop offset="1" stop-color="#A4609C"/>
</linearGradient>
<linearGradient id="paint1_linear_32_2225" x1="94.7568" y1="577.385" x2="160.778" y2="576.945" gradientUnits="userSpaceOnUse">
<stop stop-color="#FE6D73"/>
<stop offset="0.483872" stop-color="#D86190"/>
<stop offset="1" stop-color="#A4609C"/>
</linearGradient>
<linearGradient id="paint2_linear_32_2225" x1="143.339" y1="430.808" x2="166.574" y2="430.679" gradientUnits="userSpaceOnUse">
<stop stop-color="#FE6D73"/>
<stop offset="0.483872" stop-color="#D86190"/>
<stop offset="1" stop-color="#A4609C"/>
</linearGradient>
<linearGradient id="paint3_linear_32_2225" x1="0.550207" y1="572.671" x2="28.432" y2="572.465" gradientUnits="userSpaceOnUse">
<stop stop-color="#FE6D73"/>
<stop offset="0.483872" stop-color="#D86190"/>
<stop offset="1" stop-color="#A4609C"/>
</linearGradient>
<linearGradient id="paint4_linear_32_2225" x1="35.1367" y1="654.547" x2="284.737" y2="653.359" gradientUnits="userSpaceOnUse">
<stop stop-color="#FE6D73"/>
<stop offset="0.483872" stop-color="#D86190"/>
<stop offset="1" stop-color="#A4609C"/>
</linearGradient>
<linearGradient id="paint5_linear_32_2225" x1="1427.16" y1="538.599" x2="1491.94" y2="538.599" gradientUnits="userSpaceOnUse">
<stop stop-color="#FE6D73"/>
<stop offset="0.464412" stop-color="#D86190"/>
<stop offset="1" stop-color="#A4609C"/>
</linearGradient>
<linearGradient id="paint6_linear_32_2225" x1="1459.83" y1="574.136" x2="1527.29" y2="574.136" gradientUnits="userSpaceOnUse">
<stop stop-color="#FE6D73"/>
<stop offset="0.464412" stop-color="#D86190"/>
<stop offset="1" stop-color="#A4609C"/>
</linearGradient>
<linearGradient id="paint7_linear_32_2225" x1="1454.2" y1="431.875" x2="1477.94" y2="431.875" gradientUnits="userSpaceOnUse">
<stop stop-color="#FE6D73"/>
<stop offset="0.464412" stop-color="#D86190"/>
<stop offset="1" stop-color="#A4609C"/>
</linearGradient>
<linearGradient id="paint8_linear_32_2225" x1="1592.33" y1="574.032" x2="1620.81" y2="574.032" gradientUnits="userSpaceOnUse">
<stop stop-color="#FE6D73"/>
<stop offset="0.464412" stop-color="#D86190"/>
<stop offset="1" stop-color="#A4609C"/>
</linearGradient>
<linearGradient id="paint9_linear_32_2225" x1="1471.46" y1="422.029" x2="1473.19" y2="422.029" gradientUnits="userSpaceOnUse">
<stop stop-color="#FE6D73"/>
<stop offset="0.464412" stop-color="#D86190"/>
<stop offset="1" stop-color="#A4609C"/>
</linearGradient>
<linearGradient id="paint10_linear_32_2225" x1="1612.6" y1="568.145" x2="1615.19" y2="568.145" gradientUnits="userSpaceOnUse">
<stop stop-color="#FE6D73"/>
<stop offset="0.464412" stop-color="#D86190"/>
<stop offset="1" stop-color="#A4609C"/>
</linearGradient>
<linearGradient id="paint11_linear_32_2225" x1="1335.16" y1="619.261" x2="1590.18" y2="619.261" gradientUnits="userSpaceOnUse">
<stop stop-color="#FE6D73"/>
<stop offset="0.464412" stop-color="#D86190"/>
<stop offset="1" stop-color="#A4609C"/>
</linearGradient>
<linearGradient id="paint12_linear_32_2225" x1="275" y1="693" x2="1364.5" y2="686" gradientUnits="userSpaceOnUse">
<stop stop-color="#FE6D73"/>
<stop offset="0.483872" stop-color="#D86190"/>
<stop offset="1" stop-color="#A4609C"/>
</linearGradient>
<linearGradient id="paint13_linear_32_2225" x1="712" y1="810" x2="537" y2="810" gradientUnits="userSpaceOnUse">
<stop stop-color="#FE6D73"/>
<stop offset="0.464412" stop-color="#D86190"/>
<stop offset="1" stop-color="#A4609C"/>
</linearGradient>
<linearGradient id="paint14_linear_32_2225" x1="1086.94" y1="810" x2="911.936" y2="810" gradientUnits="userSpaceOnUse">
<stop stop-color="#FE6D73"/>
<stop offset="0.464412" stop-color="#D86190"/>
<stop offset="1" stop-color="#A4609C"/>
</linearGradient>
</defs>
</svg>
